<?xml version="1.0" encoding="UTF-8" standalone="no"?>
<!DOCTYPE svg PUBLIC "-//W3C//DTD SVG 1.1//EN"
 "http://www.w3.org/Graphics/SVG/1.1/DTD/svg11.dtd">
<!-- Generated by graphviz version 3.0.0 (20220226.1711)
 -->
<!-- Title: Иерархия классов. Графический вид. Pages: 1 -->
<svg width="230pt" height="66pt"
 viewBox="0.00 0.00 230.00 66.00" xmlns="http://www.w3.org/2000/svg" xmlns:xlink="http://www.w3.org/1999/xlink">
<g id="graph0" class="graph" transform="scale(1 1) rotate(0) translate(4 62)">
<title>Иерархия классов. Графический вид.</title>
<!-- Node3 -->
<g id="node1" class="node">
<title>Node3</title>
<g id="a_node1"><a xlink:title=" ">
<polygon fill="none" stroke="#bfbfbf" points="0,-19.5 0,-38.5 85,-38.5 85,-19.5 0,-19.5"/>
<text text-anchor="middle" x="42.5" y="-26.5" font-family="Helvetica,sans-Serif" font-size="10.00">std::vector&lt; T &gt;</text>
</a>
</g>
</g>
<!-- Node0 -->
<g id="node2" class="node">
<title>Node0</title>
<g id="a_node2"><a xlink:href="d4/d19/classsimple_1_1matrix.html" target="_top" xlink:title="Простой матричный класс">
<polygon fill="none" stroke="black" points="121,-38.5 121,-57.5 222,-57.5 222,-38.5 121,-38.5"/>
<text text-anchor="middle" x="171.5" y="-45.5" font-family="Helvetica,sans-Serif" font-size="10.00">simple::matrix&lt; T &gt;</text>
</a>
</g>
</g>
<!-- Node3&#45;&gt;Node0 -->
<g id="edge1" class="edge">
<title>Node3&#45;&gt;Node0</title>
<path fill="none" stroke="midnightblue" d="M95.22,-36.74C103.69,-38 112.44,-39.31 120.86,-40.57"/>
<polygon fill="midnightblue" stroke="midnightblue" points="95.49,-33.24 85.08,-35.22 94.46,-40.16 95.49,-33.24"/>
</g>
<!-- Node5 -->
<g id="node3" class="node">
<title>Node5</title>
<g id="a_node3"><a xlink:href="dd/d3b/classsimple_1_1vector.html" target="_top" xlink:title="Простой векторный класс">
<polygon fill="none" stroke="black" points="121.5,-0.5 121.5,-19.5 221.5,-19.5 221.5,-0.5 121.5,-0.5"/>
<text text-anchor="middle" x="171.5" y="-7.5" font-family="Helvetica,sans-Serif" font-size="10.00">simple::vector&lt; T &gt;</text>
</a>
</g>
</g>
<!-- Node3&#45;&gt;Node5 -->
<g id="edge2" class="edge">
<title>Node3&#45;&gt;Node5</title>
<path fill="none" stroke="midnightblue" d="M95.07,-21.28C103.74,-19.99 112.71,-18.65 121.31,-17.36"/>
<polygon fill="midnightblue" stroke="midnightblue" points="94.46,-17.84 85.08,-22.78 95.49,-24.76 94.46,-17.84"/>
</g>
</g>
</svg>
