<svg xmlns="http://www.w3.org/2000/svg" enable-background="new 0 0 25 25" viewBox="0 0 25 25" width="60px" height="60px"><path fill="#583689" d="M3.185 25H1c-.552 0-1-.447-1-1V1c0-.553.448-1 1-1h2.185c.552 0 1 .447 1 1s-.448 1-1 1H2v21h1.185c.552 0 1 .447 1 1S3.737 25 3.185 25zM24 25h-2.185c-.552 0-1-.447-1-1s.448-1 1-1H23V2h-1.185c-.552 0-1-.447-1-1s.448-1 1-1H24c.552 0 1 .447 1 1v23C25 24.553 24.552 25 24 25z"/><path fill="#DE002A" d="M6.731,17.5c-0.414,0-0.75-0.336-0.75-0.75v-8C5.981,8.336,6.317,8,6.731,8s0.75,0.336,0.75,0.75v8C7.481,17.164,7.145,17.5,6.731,17.5z"/><path fill="#DE002A" d="M12.498,17.5C12.498,17.5,12.498,17.5,12.498,17.5c-0.415,0-0.75-0.336-0.75-0.75l0.002-1.315c0.007-2.911,0.012-4.668-0.371-5.052c-0.125-0.124-0.447-0.178-1.08-0.178c-2.16,0-2.885,1.2-2.915,1.251c-0.207,0.354-0.661,0.481-1.019,0.281c-0.357-0.201-0.489-0.646-0.294-1.007c0.045-0.082,1.136-2.025,4.228-2.025c0.771,0,1.572,0.048,2.142,0.619c0.822,0.823,0.818,2.264,0.809,6.114l-0.002,1.312C13.248,17.164,12.912,17.5,12.498,17.5z"/><path fill="#DE002A" d="M18.227,17.5C18.227,17.5,18.227,17.5,18.227,17.5c-0.415,0-0.75-0.336-0.75-0.75l0.002-1.316c0.007-2.91,0.011-4.668-0.371-5.051c-0.125-0.124-0.447-0.178-1.079-0.178c-2.16,0-2.885,1.2-2.915,1.251c-0.206,0.354-0.661,0.481-1.019,0.281c-0.357-0.201-0.489-0.646-0.294-1.007c0.045-0.082,1.136-2.025,4.228-2.025c0.771,0,1.572,0.048,2.141,0.618c0.822,0.824,0.818,2.265,0.809,6.114l-0.002,1.312C18.977,17.164,18.641,17.5,18.227,17.5z"/></svg>