<?xml version="1.0" encoding="UTF-8" standalone="no"?>
<!DOCTYPE svg PUBLIC "-//W3C//DTD SVG 1.1//EN"
 "http://www.w3.org/Graphics/SVG/1.1/DTD/svg11.dtd">
<!-- Generated by graphviz version 3.0.0 (20220226.1711)
 -->
<!-- Title: simple::vector&lt; T &gt; Pages: 1 -->
<svg width="108pt" height="152pt"
 viewBox="0.00 0.00 108.00 152.00" xmlns="http://www.w3.org/2000/svg" xmlns:xlink="http://www.w3.org/1999/xlink">
<g id="graph0" class="graph" transform="scale(1 1) rotate(0) translate(4 148)">
<title>simple::vector&lt; T &gt;</title>
<!-- Node1 -->
<g id="node1" class="node">
<title>Node1</title>
<g id="a_node1"><a xlink:title="Простой векторный класс">
<polygon fill="#bfbfbf" stroke="black" points="0,-0.5 0,-19.5 100,-19.5 100,-0.5 0,-0.5"/>
<text text-anchor="middle" x="50" y="-7.5" font-family="Helvetica,sans-Serif" font-size="10.00">simple::vector&lt; T &gt;</text>
</a>
</g>
</g>
<!-- Node2 -->
<g id="node2" class="node">
<title>Node2</title>
<g id="a_node2"><a xlink:title=" ">
<polygon fill="none" stroke="#bfbfbf" points="7.5,-57.5 7.5,-76.5 92.5,-76.5 92.5,-57.5 7.5,-57.5"/>
<text text-anchor="middle" x="50" y="-64.5" font-family="Helvetica,sans-Serif" font-size="10.00">std::vector&lt; T &gt;</text>
</a>
</g>
</g>
<!-- Node2&#45;&gt;Node1 -->
<g id="edge1" class="edge">
<title>Node2&#45;&gt;Node1</title>
<path fill="none" stroke="midnightblue" d="M50,-47.12C50,-37.82 50,-27.06 50,-19.71"/>
<polygon fill="midnightblue" stroke="midnightblue" points="46.5,-47.41 50,-57.41 53.5,-47.41 46.5,-47.41"/>
</g>
<!-- Node3 -->
<g id="node3" class="node">
<title>Node3</title>
<g id="a_node3"><a xlink:title=" ">
<polygon fill="none" stroke="#bfbfbf" points="35.5,-124.5 35.5,-143.5 64.5,-143.5 64.5,-124.5 35.5,-124.5"/>
<text text-anchor="middle" x="50" y="-131.5" font-family="Helvetica,sans-Serif" font-size="10.00">T</text>
</a>
</g>
</g>
<!-- Node3&#45;&gt;Node2 -->
<g id="edge2" class="edge">
<title>Node3&#45;&gt;Node2</title>
<path fill="none" stroke="#9a32cd" stroke-dasharray="5,2" d="M50,-114.04C50,-101.67 50,-86.12 50,-76.63"/>
<polygon fill="#9a32cd" stroke="#9a32cd" points="46.5,-114.23 50,-124.23 53.5,-114.23 46.5,-114.23"/>
<text text-anchor="middle" x="71.5" y="-98" font-family="Helvetica,sans-Serif" font-size="10.00"> elements</text>
</g>
</g>
</svg>
